<svg xmlns="http://www.w3.org/2000/svg" width="13.487" height="16.375" viewBox="0 0 13.487 16.375"><defs><style>.a{fill:#bbb;}.b{fill:#ff4343;}</style></defs><g transform="translate(-825 -27)"><path class="a" d="M11.744,17.75a1.44,1.44,0,0,0,1.436-1.436H10.308A1.435,1.435,0,0,0,11.744,17.75Zm4.308-4.308V9.853a4.374,4.374,0,0,0-3.231-4.537V4.827a1.077,1.077,0,0,0-2.154,0v.488A4.362,4.362,0,0,0,7.436,9.853v3.59L6,14.878V15.6H17.487v-.718Z" transform="translate(819 25.625)"/><circle class="b" cx="3.5" cy="3.5" r="3.5" transform="translate(831.487 27)"/></g></svg>