<svg xmlns="http://www.w3.org/2000/svg" width="15.333" height="14.154" viewBox="0 0 15.333 14.154"><defs><style>.a{fill:#0089e1;}</style></defs><g transform="translate(-3.375 -4.499)"><path class="a" d="M16.5,11.25H5.587a2.213,2.213,0,0,0-2.212,2.212v6.192a2.213,2.213,0,0,0,2.212,2.212H16.5a2.213,2.213,0,0,0,2.212-2.212V13.462A2.213,2.213,0,0,0,16.5,11.25Z" transform="translate(0 -3.212)"/><path class="a" d="M14.78,4.536,6.122,6.228C5.458,6.376,4.5,7.043,4.5,7.854a2.322,2.322,0,0,1,1.806-.7H16.885V6.4a2.117,2.117,0,0,0-.512-1.386h0A1.743,1.743,0,0,0,14.78,4.536Z" transform="translate(-0.535)"/></g></svg>