<svg xmlns="http://www.w3.org/2000/svg" width="16.875" height="15" viewBox="0 0 16.875 15"><defs><style>.a{fill:gray;}</style></defs><path class="a" d="M13.821,16.431v-.773A4.187,4.187,0,0,0,15.7,12.174c0-2.33,0-4.219-2.812-4.219s-2.812,1.889-2.812,4.219a4.187,4.187,0,0,0,1.875,3.484v.773c-3.18.26-5.625,1.823-5.625,3.712H19.446c0-1.889-2.445-3.452-5.625-3.712Zm-6.457.362a8.907,8.907,0,0,1,2.927-1.178,5.288,5.288,0,0,1-.593-.865,5.368,5.368,0,0,1-.681-2.577A8.324,8.324,0,0,1,9.465,8.75,3.052,3.052,0,0,1,11.8,7c-.248-1.12-.907-1.857-2.663-1.857-2.812,0-2.812,1.889-2.812,4.219A4.187,4.187,0,0,0,8.2,12.845v.773c-3.18.26-5.625,1.823-5.625,3.712H6.658a6,6,0,0,1,.706-.537Z" transform="translate(-2.571 -5.143)"/></svg>